<svg width="19" height="19" viewBox="0 0 19 19" fill="none" xmlns="http://www.w3.org/2000/svg">
<rect x="1" y="1" width="17" height="17" rx="2" stroke="#C29974" stroke-width="2"/>
<mask id="path-2-inside-1_30016_2116" fill="white">
<path fill-rule="evenodd" clip-rule="evenodd" d="M17.0995 0.27329C17.7769 0.645909 18.0241 1.49719 17.6515 2.17468L11.3397 13.6505C10.575 15.0409 8.60377 15.1135 7.73896 13.783L3.82595 7.76298C3.40457 7.11469 3.58851 6.24755 4.23679 5.82617C4.88507 5.40479 5.75221 5.58872 6.17359 6.23701L9.44962 11.277L15.1981 0.825306C15.5707 0.147817 16.422 -0.0993293 17.0995 0.27329Z"/>
</mask>
<path d="M17.6515 2.17468L20.1049 3.52405L20.1049 3.52405L17.6515 2.17468ZM17.0995 0.27329L18.4488 -2.18011L18.4488 -2.18012L17.0995 0.27329ZM11.3397 13.6505L13.7932 14.9999L13.7932 14.9999L11.3397 13.6505ZM7.73896 13.783L5.39132 15.309L5.39132 15.309L7.73896 13.783ZM3.82595 7.76298L1.47831 9.28894H1.47831L3.82595 7.76298ZM4.23679 5.82617L5.76276 8.17381L5.76276 8.17381L4.23679 5.82617ZM6.17359 6.23701L8.52124 4.71104L6.17359 6.23701ZM9.44962 11.277L7.10197 12.803L9.64993 16.7229L11.903 12.6264L9.44962 11.277ZM15.1981 0.825306L12.7447 -0.524069L12.7447 -0.524067L15.1981 0.825306ZM20.1049 3.52405C21.2227 1.49158 20.4813 -1.06226 18.4488 -2.18011L15.7501 2.72669C15.0726 2.35408 14.8255 1.5028 15.1981 0.825306L20.1049 3.52405ZM13.7932 14.9999L20.1049 3.52405L15.1981 0.825305L8.88634 12.3012L13.7932 14.9999ZM5.39132 15.309C7.40921 18.4134 12.0088 18.2442 13.7932 14.9999L8.88634 12.3012C9.14125 11.8377 9.79833 11.8135 10.0866 12.257L5.39132 15.309ZM1.47831 9.28894L5.39132 15.309L10.0866 12.257L6.17359 6.23701L1.47831 9.28894ZM2.71082 3.47853C0.765971 4.74268 0.214158 7.34409 1.47831 9.28894L6.17359 6.23701C6.59498 6.88529 6.41104 7.75243 5.76276 8.17381L2.71082 3.47853ZM8.52124 4.71104C7.25708 2.76619 4.65567 2.21438 2.71082 3.47853L5.76276 8.17381C5.11447 8.5952 4.24734 8.41126 3.82595 7.76298L8.52124 4.71104ZM11.7973 9.75107L8.52124 4.71104L3.82595 7.76298L7.10197 12.803L11.7973 9.75107ZM12.7447 -0.524067L6.99621 9.92767L11.903 12.6264L17.6515 2.17468L12.7447 -0.524067ZM18.4488 -2.18012C16.4164 -3.29797 13.8625 -2.55653 12.7447 -0.524069L17.6515 2.17468C17.2789 2.85217 16.4276 3.09931 15.7501 2.72669L18.4488 -2.18012Z" fill="#C29974" mask="url(#path-2-inside-1_30016_2116)"/>
</svg>
