<svg width="25" height="24" viewBox="0 0 25 24" fill="none" xmlns="http://www.w3.org/2000/svg">
<path d="M15.2614 3.26001C11.8385 3.26001 9.05615 6.08001 9.05615 9.52001C9.05615 10.98 9.55657 12.3 10.3773 13.38L4.49228 19.32C4.15199 19.68 4.15199 20.24 4.49228 20.58C4.67243 20.76 4.89262 20.84 5.1128 20.84C5.35301 20.84 5.57319 20.76 5.75334 20.58L11.6383 14.62C12.6592 15.36 13.9003 15.78 15.2414 15.78C18.6643 15.78 21.4467 12.96 21.4467 9.52001C21.4667 6.06001 18.6843 3.26001 15.2614 3.26001ZM15.2614 14.2C12.7193 14.2 10.6575 12.1 10.6575 9.52001C10.6575 6.94001 12.7193 4.84001 15.2614 4.84001C17.8036 4.84001 19.8653 6.94001 19.8653 9.52001C19.8653 12.1 17.8036 14.2 15.2614 14.2ZM18.364 9.60001C18.324 9.94001 18.0238 10.2 17.6835 10.2C17.6434 10.2 17.6234 10.2 17.5834 10.2C17.2031 10.14 16.9428 9.80001 16.9829 9.42001C17.123 8.38001 15.962 7.84001 15.902 7.82001C15.5617 7.66001 15.4015 7.24001 15.5617 6.90001C15.7218 6.56001 16.1221 6.40001 16.4825 6.54001C16.5625 6.56001 18.6443 7.52001 18.364 9.60001ZM16.9028 11.12C17.0429 11.26 17.143 11.48 17.143 11.68C17.143 11.9 17.0629 12.1 16.9028 12.24C16.7627 12.38 16.5425 12.48 16.3423 12.48C16.1422 12.48 15.922 12.4 15.7819 12.24C15.6417 12.1 15.5417 11.88 15.5417 11.68C15.5417 11.48 15.6217 11.26 15.7819 11.12C15.922 10.98 16.1422 10.88 16.3423 10.88C16.5425 10.88 16.7427 10.96 16.9028 11.12Z" fill="#1E0606"/>
</svg>
