<svg display="none" xmlns="http://www.w3.org/2000/svg">
  <symbol id="arrow_prev"  viewBox="0 0 18 30" fill="none">
    <path d="M16 2L3 15L16 28" stroke-width="4"/>
  </symbol>
  <symbol id="arrow_next" viewBox="0 0 18 30" fill="none">
    <path d="M2 2L15 15L2 28" stroke-width="4"/>
  </symbol>
  <symbol id="logo" viewBox="0 0 100 52" fill="none">
    <path fill-rule="evenodd" clip-rule="evenodd" d="M0.997559 0H19.1259C32.1442 0 41.4377 12.3713 41.4377 24.0356V27.7332C41.4377 39.3974 32.1442 51.7689 19.1259 51.7689H0.997559V0ZM38.6487 24.0356C38.6487 13.5132 30.2391 2.77333 19.1259 2.77333H3.78653V48.9956H19.1259C30.2391 48.9956 38.6487 38.2557 38.6487 27.7333V24.0356Z" fill="#1E0606"/>
    <path d="M47.4805 0H50.2694V49.2267H65.144V52H47.4805V0Z" fill="#1E0606"/>
    <path d="M68.8626 0V51.7689H71.6516V27.3833L72.3362 26.7025L97.1676 51.7689H101.083L74.3083 24.7414L99.1893 0H95.2451L71.6516 23.4612V0H68.8626Z" fill="#1E0606"/>
  </symbol>
  <symbol id="star" width="14" height="13" viewBox="0 0 14 13" fill="none">
    <path d="M5.60845 0.927052C5.9078 0.0057416 7.21121 0.00574088 7.51056 0.927052L8.58013 4.21885H12.0413C13.0101 4.21885 13.4128 5.45846 12.6291 6.02786L9.82895 8.06231L10.8985 11.3541C11.1979 12.2754 10.1434 13.0415 9.35968 12.4721L6.55951 10.4377L3.75934 12.4721C2.97563 13.0415 1.92115 12.2754 2.2205 11.3541L3.29007 8.06231L0.4899 6.02787C-0.293814 5.45846 0.108961 4.21885 1.07768 4.21885H4.53888L5.60845 0.927052Z" fill="white"/>
  </symbol>
  <symbol id="facebook" width="30" height="30" viewBox="0 0 30 30" fill="none">
    <path fill-rule="evenodd" clip-rule="evenodd" d="M0 15C0 6.71573 6.71573 0 15 0C23.2843 0 30 6.71573 30 15C30 23.2843 23.2843 30 15 30C6.71573 30 0 23.2843 0 15Z" fill="#666666"/>
    <path fill-rule="evenodd" clip-rule="evenodd" d="M18.5527 10.3672H16.2967C16.0307 10.3672 15.7337 10.7172 15.7337 11.1852V12.8142H18.5527V15.1352H15.7337V22.1052H13.0707V15.1352H10.6577V12.8142H13.0707V11.4472C13.0707 9.48823 14.4317 7.89423 16.2967 7.89423H18.5527V10.3672Z" fill="white"/>
  </symbol>
  <symbol id="twitter" width="30" height="30" viewBox="0 0 30 30" fill="none">
    <path fill-rule="evenodd" clip-rule="evenodd" d="M0 15C0 6.71573 6.71573 0 15 0C23.2843 0 30 6.71573 30 15C30 23.2843 23.2843 30 15 30C6.71573 30 0 23.2843 0 15Z" fill="#666666"/>
    <path fill-rule="evenodd" clip-rule="evenodd" d="M21.1006 12.2891C21.1056 12.4161 21.1096 12.5431 21.1096 12.6721C21.1096 16.5761 18.1366 21.0781 12.7026 21.0781C11.0346 21.0781 9.48058 20.5881 8.17358 19.7501C8.40658 19.7771 8.64158 19.7911 8.87958 19.7911C10.2636 19.7911 11.5376 19.3181 12.5486 18.5251C11.2556 18.5021 10.1656 17.6481 9.78758 16.4751C9.96858 16.5101 10.1546 16.5271 10.3446 16.5271C10.6136 16.5271 10.8746 16.4921 11.1226 16.4241C9.77158 16.1521 8.75158 14.9591 8.75158 13.5271V13.4901C9.15058 13.7111 9.60758 13.8441 10.0916 13.8591C9.29858 13.3301 8.77758 12.4261 8.77758 11.4001C8.77758 10.8591 8.92258 10.3521 9.17658 9.91612C10.6326 11.7031 12.8106 12.8791 15.2656 13.0021C15.2156 12.7851 15.1906 12.5601 15.1906 12.3281C15.1906 10.6971 16.5126 9.37512 18.1446 9.37512C18.9936 9.37512 19.7616 9.73212 20.2996 10.3071C20.9736 10.1761 21.6056 9.93012 22.1766 9.59012C21.9556 10.2811 21.4886 10.8591 20.8766 11.2251C21.4746 11.1541 22.0446 10.9961 22.5756 10.7601C22.1776 11.3521 21.6776 11.8731 21.1006 12.2891Z" fill="white"/>
  </symbol>
  <symbol id="pinterest" width="30" height="30" viewBox="0 0 30 30" fill="none">
    <path fill-rule="evenodd" clip-rule="evenodd" d="M0 15C0 6.71573 6.71573 0 15 0C23.2843 0 30 6.71573 30 15C30 23.2843 23.2843 30 15 30C6.71573 30 0 23.2843 0 15Z" fill="#666666"/>
    <path fill-rule="evenodd" clip-rule="evenodd" d="M21.1006 12.2891C21.1056 12.4161 21.1096 12.5431 21.1096 12.6721C21.1096 16.5761 18.1366 21.0781 12.7026 21.0781C11.0346 21.0781 9.48058 20.5881 8.17358 19.7501C8.40658 19.7771 8.64158 19.7911 8.87958 19.7911C10.2636 19.7911 11.5376 19.3181 12.5486 18.5251C11.2556 18.5021 10.1656 17.6481 9.78758 16.4751C9.96858 16.5101 10.1546 16.5271 10.3446 16.5271C10.6136 16.5271 10.8746 16.4921 11.1226 16.4241C9.77158 16.1521 8.75158 14.9591 8.75158 13.5271V13.4901C9.15058 13.7111 9.60758 13.8441 10.0916 13.8591C9.29858 13.3301 8.77758 12.4261 8.77758 11.4001C8.77758 10.8591 8.92258 10.3521 9.17658 9.91612C10.6326 11.7031 12.8106 12.8791 15.2656 13.0021C15.2156 12.7851 15.1906 12.5601 15.1906 12.3281C15.1906 10.6971 16.5126 9.37512 18.1446 9.37512C18.9936 9.37512 19.7616 9.73212 20.2996 10.3071C20.9736 10.1761 21.6056 9.93012 22.1766 9.59012C21.9556 10.2811 21.4886 10.8591 20.8766 11.2251C21.4746 11.1541 22.0446 10.9961 22.5756 10.7601C22.1776 11.3521 21.6776 11.8731 21.1006 12.2891Z" fill="white"/>
  </symbol>
  <symbol id="instagram" width="30" height="30" viewBox="0 0 30 30" fill="none">
    <path fill-rule="evenodd" clip-rule="evenodd" d="M0 15C0 6.71573 6.71573 0 15 0C23.2843 0 30 6.71573 30 15C30 23.2843 23.2843 30 15 30C6.71573 30 0 23.2843 0 15Z" fill="#666666"/>
    <path fill-rule="evenodd" clip-rule="evenodd" d="M15 7C12.8273 7 12.5549 7.0092 11.7016 7.04813C10.8501 7.08697 10.2686 7.22223 9.7597 7.42C9.23363 7.62443 8.7875 7.89797 8.3427 8.3427C7.89797 8.7875 7.62443 9.23363 7.42 9.7597C7.22223 10.2686 7.08697 10.8501 7.04813 11.7016C7.0092 12.5549 7 12.8273 7 15C7 17.1727 7.0092 17.4451 7.04813 18.2984C7.08697 19.1499 7.22223 19.7314 7.42 20.2403C7.62443 20.7664 7.89797 21.2125 8.3427 21.6573C8.7875 22.102 9.23363 22.3756 9.7597 22.58C10.2686 22.7778 10.8501 22.913 11.7016 22.9519C12.5549 22.9908 12.8273 23 15 23C17.1727 23 17.4451 22.9908 18.2984 22.9519C19.1499 22.913 19.7314 22.7778 20.2403 22.58C20.7664 22.3756 21.2125 22.102 21.6573 21.6573C22.102 21.2125 22.3756 20.7664 22.58 20.2403C22.7778 19.7314 22.913 19.1499 22.9519 18.2984C22.9908 17.4451 23 17.1727 23 15C23 12.8273 22.9908 12.5549 22.9519 11.7016C22.913 10.8501 22.7778 10.2686 22.58 9.7597C22.3756 9.23363 22.102 8.7875 21.6573 8.3427C21.2125 7.89797 20.7664 7.62443 20.2403 7.42C19.7314 7.22223 19.1499 7.08697 18.2984 7.04813C17.4451 7.0092 17.1727 7 15 7ZM15 8.44143C17.1361 8.44143 17.3891 8.4496 18.2327 8.4881C19.0127 8.52367 19.4363 8.65397 19.7182 8.76353C20.0916 8.90867 20.3581 9.08203 20.638 9.362C20.918 9.6419 21.0913 9.9084 21.2365 10.2818C21.346 10.5637 21.4763 10.9873 21.5119 11.7673C21.5504 12.6109 21.5586 12.8639 21.5586 15C21.5586 17.1361 21.5504 17.3891 21.5119 18.2327C21.4763 19.0127 21.346 19.4363 21.2365 19.7182C21.0913 20.0916 20.918 20.3581 20.638 20.638C20.3581 20.918 20.0916 21.0913 19.7182 21.2365C19.4363 21.346 19.0127 21.4763 18.2327 21.5119C17.3892 21.5504 17.1363 21.5586 15 21.5586C12.8637 21.5586 12.6108 21.5504 11.7673 21.5119C10.9873 21.4763 10.5637 21.346 10.2818 21.2365C9.9084 21.0913 9.64193 20.918 9.36197 20.638C9.08207 20.3581 8.90867 20.0916 8.76353 19.7182C8.65397 19.4363 8.52367 19.0127 8.4881 18.2327C8.4496 17.3891 8.44143 17.1361 8.44143 15C8.44143 12.8639 8.4496 12.6109 8.4881 11.7673C8.52367 10.9873 8.65397 10.5637 8.76353 10.2818C8.90867 9.9084 9.08203 9.6419 9.36197 9.362C9.64193 9.08203 9.9084 8.90867 10.2818 8.76353C10.5637 8.65397 10.9873 8.52367 11.7673 8.4881C12.6109 8.4496 12.8639 8.44143 15 8.44143ZM10.8919 15C10.8919 12.7311 12.7311 10.8919 15 10.8919C17.2689 10.8919 19.1081 12.7311 19.1081 15C19.1081 17.2689 17.2689 19.1081 15 19.1081C12.7311 19.1081 10.8919 17.2689 10.8919 15ZM15 17.6667C13.5272 17.6667 12.3333 16.4728 12.3333 15C12.3333 13.5272 13.5272 12.3333 15 12.3333C16.4728 12.3333 17.6667 13.5272 17.6667 15C17.6667 16.4728 16.4728 17.6667 15 17.6667ZM19.2704 11.6896C19.8006 11.6896 20.2304 11.2598 20.2304 10.7296C20.2304 10.1994 19.8006 9.76957 19.2704 9.76957C18.7402 9.76957 18.3104 10.1994 18.3104 10.7296C18.3104 11.2598 18.7402 11.6896 19.2704 11.6896Z" fill="white"/>
  </symbol>
  <symbol id="dark__instagram" width="59" height="59" viewBox="0 0 59 59" fill="none">
    <path d="M29.4888 2.00822L29.5 2.00828L29.5112 2.00822C34.9773 1.97747 37.4821 2.03118 41.5072 2.19984C44.4816 2.373 45.8509 2.63683 48.0301 3.42781C50.1216 4.2757 51.0492 4.89777 52.6102 6.38983C54.1022 7.95079 54.7243 8.87837 55.5722 10.9698C56.3632 13.1491 56.627 14.5183 56.8001 17.4926C56.9688 21.5179 57.0225 24.0227 56.9918 29.4888L56.9917 29.5L56.9918 29.5112C57.0225 34.9773 56.9688 37.4821 56.8001 41.5074C56.627 44.4817 56.3632 45.8509 55.5722 48.0302C54.7243 50.1216 54.1022 51.0492 52.6102 52.6102C51.0492 54.1022 50.1216 54.7243 48.0302 55.5722C45.8509 56.3632 44.4817 56.627 41.5074 56.8001C37.4821 56.9688 34.9773 57.0225 29.5112 56.9918L29.5 56.9917L29.4888 56.9918C24.0227 57.0225 21.5179 56.9688 17.4926 56.8001C14.5183 56.627 13.1491 56.3632 10.9698 55.5722C8.87837 54.7243 7.95079 54.1022 6.38983 52.6102C4.89777 51.0492 4.2757 50.1216 3.42781 48.0301C2.63683 45.8509 2.373 44.4816 2.19984 41.5072C2.03118 37.4821 1.97747 34.9773 2.00822 29.5112L2.00828 29.5L2.00822 29.4888C1.97747 24.0227 2.03118 21.5179 2.19984 17.4928C2.373 14.5184 2.63683 13.1491 3.42782 10.9698C4.2757 8.87837 4.89777 7.95079 6.38983 6.38983C7.95079 4.89777 8.87837 4.2757 10.9698 3.42782C13.1491 2.63683 14.5184 2.373 17.4928 2.19984C21.5179 2.03118 24.0227 1.97747 29.4888 2.00822Z" stroke="#2C3036" stroke-width="4" stroke-linecap="square"/>
    <circle cx="29.5" cy="29.5" r="12.5" stroke="#2C3036" stroke-width="4" stroke-linecap="square"/>
    <circle cx="45.5" cy="13.5" r="3.5" fill="#2C3036"/>
  </symbol>
  <symbol id="search" viewBox="0 0 25 24" fill="none">
    <path d="M15.2614 3.26001C11.8385 3.26001 9.05615 6.08001 9.05615 9.52001C9.05615 10.98 9.55657 12.3 10.3773 13.38L4.49228 19.32C4.15199 19.68 4.15199 20.24 4.49228 20.58C4.67243 20.76 4.89262 20.84 5.1128 20.84C5.35301 20.84 5.57319 20.76 5.75334 20.58L11.6383 14.62C12.6592 15.36 13.9003 15.78 15.2414 15.78C18.6643 15.78 21.4467 12.96 21.4467 9.52001C21.4667 6.06001 18.6843 3.26001 15.2614 3.26001ZM15.2614 14.2C12.7193 14.2 10.6575 12.1 10.6575 9.52001C10.6575 6.94001 12.7193 4.84001 15.2614 4.84001C17.8036 4.84001 19.8653 6.94001 19.8653 9.52001C19.8653 12.1 17.8036 14.2 15.2614 14.2ZM18.364 9.60001C18.324 9.94001 18.0238 10.2 17.6835 10.2C17.6434 10.2 17.6234 10.2 17.5834 10.2C17.2031 10.14 16.9428 9.80001 16.9829 9.42001C17.123 8.38001 15.962 7.84001 15.902 7.82001C15.5617 7.66001 15.4015 7.24001 15.5617 6.90001C15.7218 6.56001 16.1221 6.40001 16.4825 6.54001C16.5625 6.56001 18.6443 7.52001 18.364 9.60001ZM16.9028 11.12C17.0429 11.26 17.143 11.48 17.143 11.68C17.143 11.9 17.0629 12.1 16.9028 12.24C16.7627 12.38 16.5425 12.48 16.3423 12.48C16.1422 12.48 15.922 12.4 15.7819 12.24C15.6417 12.1 15.5417 11.88 15.5417 11.68C15.5417 11.48 15.6217 11.26 15.7819 11.12C15.922 10.98 16.1422 10.88 16.3423 10.88C16.5425 10.88 16.7427 10.96 16.9028 11.12Z" fill="#1E0606"/>
  </symbol>
  <symbol id="close" width="15" height="15" viewBox="0 0 15 15" fill="none">
    <path d="M2.21902 14.6113C1.70029 15.1295 0.893368 15.1295 0.374636 14.6113C0.11527 14.3522 -6.13512e-07 14.0355 -5.9841e-07 13.69C-5.83308e-07 13.3445 0.11527 13.0278 0.374636 12.7687L5.64841 7.5L0.374637 2.23127C0.115271 1.97215 -7.23629e-08 1.65547 -5.72611e-08 1.30998C-4.21593e-08 0.964491 0.115271 0.647806 0.374637 0.388689C0.893369 -0.129545 1.70029 -0.129545 2.21902 0.388689L7.4928 5.65738L12.7666 0.38869C13.2853 -0.129545 14.0922 -0.129545 14.611 0.38869C15.1297 0.906924 15.1297 1.71304 14.611 2.23127L9.33718 7.5L14.611 12.7687C15.1297 13.287 15.1297 14.0931 14.611 14.6113C14.0922 15.1295 13.2853 15.1295 12.7666 14.6113L7.4928 9.34258L2.21902 14.6113Z" fill="white"/>
  </symbol>
    <symbol id="dark_close" width="16" height="16" viewBox="0 0 16 16" fill="none">
      <path fill-rule="evenodd" clip-rule="evenodd" d="M0.707105 0L0 0.707105L7.07111 7.77821L4.6869e-05 14.8493L0.707151 15.5564L7.77821 8.48532L14.8492 15.5563L15.5563 14.8492L8.48532 7.77821L15.5563 0.707178L14.8492 7.33696e-05L7.77821 7.07111L0.707105 0Z" fill="#1E0606"/>
  </symbol>
    <symbol id="line" width="31" height="3" viewBox="0 0 31 3" fill="none">
        <rect width="30.9994" height="3" fill="#1E0606" fill-opacity="0.6"/>
  </symbol>
  <symbol id="svg" width="458" height="391" viewBox="0 0 458 391" fill="none">
    <g filter="url(#filter0_d_2340_15)">
    <rect x="229" y="46.9999" width="209" height="324" fill="#E6E9ED"/>
    <path d="M229 66.9999H411C414.866 66.9999 418 70.1339 418 73.9999V182C418 185.866 414.866 189 411 189H229V66.9999Z" fill="#5D9CEC"/>
    <path d="M255 343H337" stroke="#CCD1D9" stroke-width="14" stroke-linecap="round"/>
    <path d="M255 316H411" stroke="#CCD1D9" stroke-width="14" stroke-linecap="round"/>
    <rect x="249" y="208" width="169" height="88" rx="5" fill="#5D9CEC"/>
    <path d="M326.5 254C327.095 254 329.25 254 331 256L358.5 296H293.5L322 256C323.75 254 325.905 254 326.5 254Z" fill="#545C66"/>
    <path d="M363.5 241C364.095 241 366.25 241 368 243L406 296H320L359 243C360.75 241 362.905 241 363.5 241Z" fill="#656D78"/>
    <circle cx="283" cy="235.5" r="11" fill="#FFCE54"/>
    <path d="M229 66.9999H411C414.866 66.9999 418 70.1339 418 73.9999V182C418 185.866 414.866 189 411 189H229V66.9999Z" fill="#5D9CEC" />
    <path d="M296 133C296.436 133 297.463 132.959 298.927 134.474L348.5 189L246 189L293.167 134.474C294.537 132.959 295.564 133 296 133Z" fill="#545C66"/>
    <path d="M343 113C343.595 113 345 112.944 347 115L405.5 189H282.5L339.128 115C341 112.944 342.405 113 343 113Z" fill="#656D78"/>
    <rect x="42" y="46.9999" width="187" height="324" fill="#656D78"/>
    <rect x="41" y="46.9999" width="1" height="324" fill="#6C747F"/>
    <rect x="20" y="46.9999" width="21" height="324" fill="#545C66"/>
    <path d="M67 343H109" stroke="#5D9CEC" stroke-width="14" stroke-linecap="round"/>
    <path d="M80 316L176 316" stroke="#A0D468" stroke-width="14" stroke-linecap="round"/>
    <path d="M94 289H156" stroke="#ED5565" stroke-width="14" stroke-linecap="round"/>
    <path d="M107 262H196" stroke="#FFCE54" stroke-width="14" stroke-linecap="round"/>
    <path d="M107 228C103.134 228 100 231.134 100 235C100 238.866 103.134 242 107 242V228ZM107 242H229V228H107V242Z" fill="#CCD1D9"/>
    <path d="M154 201C150.134 201 147 204.134 147 208C147 211.866 150.134 215 154 215V201ZM154 215H229V201H154V215Z" fill="#CCD1D9"/>
    <path d="M107 208H129" stroke="#CCD1D9" stroke-width="14" stroke-linecap="round"/>
    <path d="M107 181H183" stroke="#CCD1D9" stroke-width="14" stroke-linecap="round"/>
    <path d="M107 148C103.134 148 100 151.134 100 155C100 158.866 103.134 162 107 162V148ZM107 162H229V148H107V162Z" fill="#FFCE54"/>
    <path d="M148 121C144.134 121 141 124.134 141 128C141 131.866 144.134 135 148 135V121ZM148 135H229V121H148V135Z" fill="#ED5565"/>
    <path d="M94 128H122" stroke="#ED5565" stroke-width="14" stroke-linecap="round"/>
    <path d="M80 101L210 101" stroke="#A0D468" stroke-width="14" stroke-linecap="round"/>
    <path d="M67 73.9999L196 73.9999" stroke="#5D9CEC" stroke-width="14" stroke-linecap="round"/>
    <path d="M35 20H423C432.5 20 438 25.5 438 35V47H20V35C20 25.4999 25.5 20 35 20Z" fill="#CCD1D9"/>
    </g>
    <defs>
    <filter id="filter0_d_2340_15" x="0" y="0" width="458" height="391" filterUnits="userSpaceOnUse" color-interpolation-filters="sRGB">
    <feFlood flood-opacity="0" result="BackgroundImageFix"/>
    <feColorMatrix in="SourceAlpha" type="matrix" values="0 0 0 0 0 0 0 0 0 0 0 0 0 0 0 0 0 0 127 0" result="hardAlpha"/>
    <feOffset/>
    <feGaussianBlur stdDeviation="10"/>
    <feColorMatrix type="matrix" values="0 0 0 0 0 0 0 0 0 0 0 0 0 0 0 0 0 0 0.2 0"/>
    <feBlend mode="normal" in2="BackgroundImageFix" result="effect1_dropShadow_2340_15"/>
    <feBlend mode="normal" in="SourceGraphic" in2="effect1_dropShadow_2340_15" result="shape"/>
    </filter>
    </defs>
  </symbol>
</svg>